<svg height="480pt" viewBox="0 0 480.08076 480" width="480pt" xmlns="http://www.w3.org/2000/svg"><path d="m464.074219 71.710938-184-7.359376v-24.3125c0-4.417968-3.582031-8-8-8h-8v-31.9999995h-16v31.9999995h-16v-31.9999995h-16v31.9999995h-8c-4.417969 0-8 3.582032-8 8v24.3125l-184 7.359376v-23.671876h-16.0000002v64c-.0039063 4.292969 3.3750002 7.820313 7.6640622 8l183.335938 7.625-53.824219 336.375h-25.175781v16h64v-16h-22.617188l5.839844-36.511718 80.777344-139.488282 80.796875 139.519532 5.816406 36.480468h-22.613281v16h64v-16h-25.175781l-53.824219-336.382812 183.335937-7.617188c4.285156-.179687 7.667969-3.707031 7.664063-8v-64h-16zm0 26.546874-19.808594-11.320312 19.808594.800781zm-210.128907 181.78125h43.304688l5.117188 32h-29.894532zm-59.417968-173.976562-33.949219-24.117188 38.054687-1.519531zm-131.199219-16.375 21.945313 17.554688-49.105469-2.042969zm-47.253906 8.570312v-10.53125l19.804687-.796874zm67.0625-13.210937 44.082031-1.765625-23.144531 18.511719zm61.222656 5.007813 29.378906 20.867187-52.722656-2.195313zm68.800781.625 57.832032 69.359374h-68.894532zm-27.703125 173.359374 12.703125-79.421874 85.535156 79.421874zm40.742188 16-18.527344 32h-29.894531l5.121094-32zm-13.75-104h68.160156l11.894531 74.34375zm12.703125-96h40.097656l9.535156 59.554688zm56.359375.386719 38.058593 1.519531-33.953124 24.117188zm54.273437 9.597657 23.34375 18.671874-52.71875 2.191407zm17.144532-6.773438 44.078124 1.765625-20.933593 16.777344zm63.894531 6.398438 27.152343 15.511718-49.105468 2.082032zm-200.75-41.609376h48v16h-48zm-40.855469 280h23.199219l-32.058594 55.371094zm106.519531 0h23.199219l8.863281 55.371094zm0 0"/><path d="m192.074219 464.039062h16v16h-16zm0 0"/><path d="m256.074219 464.039062h32v16h-32zm0 0"/><path d="m448.074219 168.039062h-2.304688c-6.671875-14.773437-23.847656-24-45.695312-24-23.296875 0-38.25 7.867188-45.519531 24h-2.480469c-8.660157-.601562-17.15625 2.574219-23.292969 8.710938s-9.3125 14.632812-8.707031 23.289062v8c0 4.417969 3.582031 8 8 8h144c4.417969 0 8-3.582031 8-8v-8c.191406-8.542968-3.117188-16.792968-9.164063-22.835937-6.042968-6.046875-14.292968-9.355469-22.835937-9.164063zm-112 32c-.546875-4.386718.960937-8.78125 4.085937-11.910156 3.128906-3.128906 7.523438-4.636718 11.914063-4.089844h8c3.496093.003907 6.589843-2.261718 7.636719-5.597656 2.96875-9.601562 8.945312-18.402344 32.363281-18.402344 12.941406 0 29.144531 4.664063 32.207031 17.816407.84375 3.621093 4.074219 6.183593 7.792969 6.183593h8c4.300781-.199218 8.488281 1.421876 11.53125 4.46875 3.046875 3.042969 4.667969 7.230469 4.46875 11.53125zm0 0"/><path d="m8.074219 240.039062h144c4.417969 0 8-3.582031 8-8v-8c.191406-8.542968-3.117188-16.792968-9.164063-22.835937-6.042968-6.046875-14.292968-9.355469-22.835937-9.164063h-2.304688c-6.671875-14.773437-23.847656-24-45.695312-24-23.296875 0-38.25 7.867188-45.519531 24h-2.480469c-8.660157-.601562-17.15625 2.574219-23.292969 8.710938s-9.3125 14.632812-8.7070312 23.289062v8c0 4.417969 3.5820312 8 8.0000002 8zm24-32h8c3.496093.003907 6.589843-2.261718 7.636719-5.597656 2.96875-9.601562 8.945312-18.402344 32.363281-18.402344 12.941406 0 29.144531 4.664063 32.207031 17.816407.84375 3.621093 4.074219 6.183593 7.792969 6.183593h8c4.300781-.199218 8.488281 1.421876 11.53125 4.46875 3.046875 3.042969 4.667969 7.230469 4.46875 11.53125h-128c-.546875-4.386718.960937-8.78125 4.085937-11.910156 3.128906-3.128906 7.523438-4.636718 11.914063-4.089844zm0 0"/></svg>